<svg width="45" height="49" viewBox="0 0 45 49" fill="none" xmlns="http://www.w3.org/2000/svg">
<path fill-rule="evenodd" clip-rule="evenodd" d="M24.969 5.57137L24.969 29.4239C29.5441 29.0413 32.9832 27.6111 35.2864 25.1335C38.0515 22.2446 39.4341 18.1382 39.4341 12.8143L39.4341 5.57137L24.969 5.57137ZM19.1629 35.2598L19.1629 42.9449L4.84123 42.9449L4.84122 48.0413L39.3551 48.0414L39.3551 42.9449L24.969 42.9449L24.969 35.3272C28.6514 35.0697 31.8017 34.2099 34.4197 32.7479C37.6388 30.9732 40.0737 28.4558 41.7246 25.1954C43.3754 21.935 44.2008 18.0763 44.2008 13.6191L44.2008 -0.000118256L0.000286488 -0.00012212L0.000285411 12.3191C0.000284776 19.5826 1.87808 25.2367 5.63368 29.2812C8.83656 32.7277 13.3463 34.7206 19.1629 35.2598ZM19.1629 29.3664L19.1629 5.57137L4.76699 5.57137L4.76699 11.5762C4.76699 22.4063 9.56562 28.3363 19.1629 29.3664Z" fill="#40E0D0"/>
</svg>
